HIERARCHY
ROOT Hips
{
	OFFSET -3.958830 18.904000 13.208200
	CHANNELS 6 Xposition Yposition Zposition Zrotation Yrotation Xrotation 
	JOINT LHipJoint
	{
		OFFSET 0.000000 0.000000 0.000000
		CHANNELS 3 Zrotation Yrotation Xrotation
		JOINT LeftUpLeg
		{
			OFFSET 1.800000 -1.400000 0.085000
			CHANNELS 3 Zrotation Yrotation Xrotation
			JOINT LeftLeg
			{
				OFFSET 2.215000 -6.000000 0.000000
				CHANNELS 3 Zrotation Yrotation Xrotation
				JOINT LeftFoot
				{
					OFFSET 2.500000 -6.900000 0.000000
					CHANNELS 3 Zrotation Yrotation Xrotation
					JOINT LeftToeBase
					{
						OFFSET 0.200000 -0.500000 1.950000
						CHANNELS 3 Zrotation Yrotation Xrotation
						End Site
						{
							OFFSET 0.000000 0.000000 0.000000
						}
					}
				}
			}
		}
	}
	JOINT RHipJoint
	{
		OFFSET 0.000000 0.000000 0.000000
		CHANNELS 3 Zrotation Yrotation Xrotation
		JOINT RightUpLeg
		{
			OFFSET -1.800000 -1.400000 0.085000
			CHANNELS 3 Zrotation Yrotation Xrotation
			JOINT RightLeg
			{
				OFFSET -2.215000 -6.000000 0.000000
				CHANNELS 3 Zrotation Yrotation Xrotation
				JOINT RightFoot
				{
					OFFSET -2.500000 -6.900000 0.000000
					CHANNELS 3 Zrotation Yrotation Xrotation
					JOINT RightToeBase
					{
						OFFSET -0.200000 -0.500000 1.950000
						CHANNELS 3 Zrotation Yrotation Xrotation
						End Site
						{
							OFFSET 0.000000 0.000000 0.000000
						}
					}
				}
			}
		}
	}
	JOINT LowerBack
	{
		OFFSET 0.000000 0.000000 0.000000
		CHANNELS 3 Zrotation Yrotation Xrotation
		JOINT Spine
		{
			OFFSET -0.087000 1.940000 -0.288900
			CHANNELS 3 Zrotation Yrotation Xrotation
			JOINT Spine1
			{
				OFFSET 0.000000 1.950000 0.060000
				CHANNELS 3 Zrotation Yrotation Xrotation
				JOINT Neck
				{
					OFFSET 0.000000 0.000000 0.000000
					CHANNELS 3 Zrotation Yrotation Xrotation
					JOINT Neck1
					{
						OFFSET 0.000000 1.600000 0.340000
						CHANNELS 3 Zrotation Yrotation Xrotation
						JOINT Head
						{
							OFFSET 0.000000 1.667000 -0.240000
							CHANNELS 3 Zrotation Yrotation Xrotation
							End Site
							{
								OFFSET 0.000000 0.000000 0.000000
							}
						}
					}
				}
				JOINT LeftShoulder
				{
					OFFSET 0.000000 0.000000 0.000000
					CHANNELS 3 Zrotation Yrotation Xrotation
					JOINT LeftArm
					{
						OFFSET 2.700000 1.550000 -0.730000
						CHANNELS 3 Zrotation Yrotation Xrotation
						JOINT LeftForeArm
						{
							OFFSET 5.450000 0.000000 0.000000
							CHANNELS 3 Zrotation Yrotation Xrotation
							JOINT LeftHand
							{
								OFFSET 3.450000 0.000000 0.000000
								CHANNELS 3 Zrotation Yrotation Xrotation
								JOINT LeftHandIndex1
								{
									OFFSET 0.750000 0.000000 0.000000
									CHANNELS 3 Zrotation Yrotation Xrotation
									End Site
									{
										OFFSET 0.000000 0.000000 0.000000
									}
								}
							}
						}
					}
				}
				JOINT RightShoulder
				{
					OFFSET 0.000000 0.000000 0.000000
					CHANNELS 3 Zrotation Yrotation Xrotation
					JOINT RightArm
					{
						OFFSET -2.700000 1.550000 -0.730000
						CHANNELS 3 Zrotation Yrotation Xrotation
						JOINT RightForeArm
						{
							OFFSET -5.450000 0.000000 0.000000
							CHANNELS 3 Zrotation Yrotation Xrotation
							JOINT RightHand
							{
								OFFSET -3.450000 0.000000 0.000000
								CHANNELS 3 Zrotation Yrotation Xrotation
								JOINT RightHandIndex1
								{
									OFFSET -0.750000 0.000000 0.000000
									CHANNELS 3 Zrotation Yrotation Xrotation
									End Site
									{
										OFFSET 0.000000 0.000000 0.000000
									}
								}
							}
						}
					}
				}
			}
		}
	}
}
MOTION
Frames: 7
Frame Time: 0.016667
2.296770 16.762660 -4.229400 -0.240830 19.513546 9.097352 -15.354824 12.868177 2.455405 1.097420 0.754209 -0.693263 -4.575797 4.844656 6.745529 -0.784184 4.994144 3.280341 0.280850 -0.151000 0.221920 18.394959 -9.522566 3.752977 5.421166 7.466297 -35.890735 7.463074 -3.363634 10.241155 0.191050 -1.960190 3.722896 0.226820 0.833550 0.501380 -3.695409 -2.034067 -7.073056 13.478944 -7.151641 2.999022 -5.993347 -7.382352 2.978252 4.916118 1.727310 -5.728561 3.420688 0.044039 14.558570 -9.047120 2.874700 -8.649330 -23.659368 -3.655360 0.369720 -52.901883 -3.305338 0.299858 -15.082696 3.636620 -2.025016 -4.583480 2.781916 0.394080 0.686770 -0.325620 0.275590 14.142619 -0.360907 2.503761 52.577861 -0.436514 -10.605897 13.890632 33.314623 0.717674 1.644677 -1.576172 -0.480840 0.414240 0.199200 -0.243280 
2.305060 16.723800 -4.190070 0.145227 18.654736 9.423358 -15.366897 12.839236 2.462715 0.124271 0.939695 -0.392300 -3.969375 4.716669 6.842246 -0.765286 4.952097 3.291980 0.307950 -0.107530 0.224690 18.397965 -9.505331 3.764683 5.970115 7.532824 -36.190162 6.659292 -3.153366 9.986878 0.211687 -1.922615 3.729575 0.255670 0.843000 0.526630 -3.664101 -2.001801 -7.037713 12.993076 -6.911204 2.537558 -6.260144 -7.215724 3.137674 5.143474 1.842786 -5.732538 3.677313 0.253720 13.904791 -9.098420 3.156600 -7.719370 -23.668687 -3.369123 0.218169 -52.321611 -3.412112 0.433684 -15.487702 3.542887 -2.032240 -4.608696 2.846264 0.334920 0.720900 -0.341320 0.288140 13.754915 -0.723321 2.685130 52.590901 -1.251034 -11.084629 14.305532 35.722012 0.939589 1.609912 -1.672170 -0.449640 0.380010 0.180610 -0.227580 
2.321160 16.662410 -4.114090 0.328063 17.054980 9.193518 -15.357909 12.813980 2.478877 -0.853868 1.235166 0.503026 -3.202492 4.654602 7.468577 -0.692584 4.926341 3.290839 0.337520 -0.049600 0.187160 18.415165 -9.530915 3.782446 7.012204 7.661737 -35.947549 5.634938 -3.012766 10.417762 0.213073 -1.923716 3.734281 0.269720 0.840610 0.552680 -3.686879 -1.899642 -7.030421 12.834067 -6.578215 2.407167 -6.506693 -6.937344 3.226623 5.241715 1.924874 -5.916463 3.808350 0.837802 13.835161 -8.255420 3.437090 -6.850620 -24.139784 -3.700718 0.532257 -51.095722 -2.898784 0.177949 -16.756731 2.469027 -2.036314 -4.566814 2.954514 0.286020 0.727790 -0.340100 0.324970 14.022958 -0.316101 2.839143 51.740496 -1.323354 -11.281719 12.387210 37.657108 0.648530 1.595981 -1.752232 -0.395880 0.324530 0.150090 -0.187650 
2.350960 16.607540 -4.022170 0.380088 15.355435 8.363996 -15.324794 12.864236 2.480953 -1.342855 1.476119 1.298257 -2.715116 4.903643 9.818394 -0.565501 4.977851 3.241997 0.304130 -0.080370 0.159840 18.427934 -9.624766 3.813770 7.915969 7.727303 -35.247221 4.641680 -3.034921 11.659040 0.200688 -1.950221 3.725058 0.195890 0.781430 0.571520 -3.754081 -1.799837 -7.078902 13.368913 -6.046223 3.014968 -6.834860 -6.357593 2.509214 5.509408 1.728476 -6.028470 3.454245 0.866349 14.943576 -8.694720 4.021430 -6.179740 -24.647964 -3.463128 0.576970 -50.092969 -2.691975 0.108841 -17.629774 1.611862 -1.909356 -4.500820 3.022903 0.275970 0.690240 -0.309180 0.309210 13.854418 -0.133426 3.074459 51.157419 -1.264582 -11.613702 8.530356 39.364605 -0.033923 1.628406 -1.759562 -0.333030 0.233720 0.142080 -0.170750 
2.379570 16.564480 -3.925980 0.564120 13.629657 7.110082 -15.284514 12.946150 2.505376 -1.750889 1.674540 1.951483 -2.484780 5.318916 12.875221 -0.478904 5.145001 3.161878 0.264690 -0.149950 0.166610 18.435391 -9.733582 3.841796 8.608673 7.737608 -34.409501 3.452214 -3.115357 13.699329 0.167133 -1.999758 3.712562 0.113210 0.714890 0.554800 -3.824982 -1.742473 -7.175958 13.840287 -5.602518 4.243841 -7.338621 -5.692263 1.806320 5.769745 1.601252 -6.250791 3.135219 0.852047 16.838397 -9.077620 4.439960 -6.652840 -26.004430 -4.149679 0.953807 -48.387216 -2.077368 -0.179813 -18.570644 0.504624 -1.832963 -4.397906 3.007297 0.344100 0.619020 -0.266920 0.279760 14.496757 0.985950 3.265945 50.000407 -0.422286 -11.369783 3.688603 37.950870 -1.088245 1.680922 -1.656836 -0.325280 0.202440 0.146790 -0.191150 
2.401780 16.556190 -3.819170 0.272229 12.221389 5.724459 -15.238380 13.145628 2.490120 -1.118374 1.454057 1.504440 -2.797553 6.159207 17.784155 -0.381823 5.533943 3.015229 0.183400 -0.284430 0.177820 18.420793 -9.828082 3.901109 8.782616 7.789907 -33.514450 3.468438 -3.496276 16.161965 0.109813 -2.130576 3.676667 -0.006030 0.657780 0.526720 -3.876707 -1.876451 -7.342104 15.191008 -5.612399 6.211224 -7.890402 -5.266689 0.066804 6.290239 1.134205 -6.557729 2.217634 1.015088 18.906046 -10.205550 5.328320 -7.814430 -26.995908 -3.910914 1.044333 -47.570647 -0.932092 -0.940863 -18.067227 -1.749809 -1.602328 -4.302148 2.914850 0.456890 0.536600 -0.213890 0.237980 14.166255 1.468152 3.619487 49.764703 -0.247365 -11.533464 -0.115782 37.114255 -1.709274 1.734044 -1.513890 -0.354070 0.206150 0.172270 -0.228690 
2.400980 16.567400 -3.705990 0.577820 10.217855 4.359864 -15.227566 13.350461 2.548081 -0.737582 1.102375 0.460691 -3.804351 7.446484 23.480365 -0.183581 6.075237 2.780443 0.165450 -0.318000 0.188340 18.366681 -9.903732 3.912763 8.537571 7.627986 -32.480465 3.527782 -3.850205 18.581256 0.029049 -2.286819 3.633058 -0.096310 0.545940 0.490940 -3.799124 -2.109452 -7.549954 14.928455 -5.319260 8.644324 -7.899721 -4.477477 -1.940707 6.613299 0.856778 -6.905956 1.513262 1.135049 21.661966 -9.890230 5.684260 -9.497520 -26.469300 -2.789980 0.803531 -48.062030 -0.313256 -1.663359 -17.846818 -3.723662 -1.327105 -4.155031 2.896053 0.548110 0.412800 -0.136980 0.214820 12.875258 1.159933 4.007720 51.086014 -0.779560 -12.268762 -2.152772 37.763139 -1.992725 1.797126 -1.433352 -0.320780 0.166140 0.151950 -0.240190 
